<svg xmlns="http://www.w3.org/2000/svg" viewBox="0 0 160 160" width="100%" height="100%">
  <defs>
    <radialGradient id="kementanGold" cx="50%" cy="30%" r="70%">
      <stop offset="0%" stop-color="#FFE066"/>
      <stop offset="60%" stop-color="#D4AF37"/>
      <stop offset="100%" stop-color="#996515"/>
    </radialGradient>
    <radialGradient id="kementanGreen" cx="50%" cy="50%" r="60%">
      <stop offset="0%" stop-color="#0A8F3D"/>
      <stop offset="100%" stop-color="#055C26"/>
    </radialGradient>
  </defs>
  
  <!-- Outer Gold Ring -->
  <circle cx="80" cy="80" r="76" fill="none" stroke="url(#kementanGold)" stroke-width="4"/>
  <circle cx="80" cy="80" r="71" fill="none" stroke="url(#kementanGold)" stroke-width="1.5"/>
  
  <!-- Green Center Shield Base -->
  <circle cx="80" cy="80" r="68" fill="url(#kementanGreen)"/>
  
  <!-- Inner Ring Details -->
  <circle cx="80" cy="80" r="48" fill="none" stroke="url(#kementanGold)" stroke-width="2" stroke-dasharray="3,2"/>
  
  <!-- Kementan Symmetrical Wings / Daun & Sayap (Stylized Golden Wings of Ministry of Agriculture) -->
  <g fill="url(#kementanGold)" stroke="#7A4B00" stroke-width="0.5">
    <!-- Center Wheat/Padi & Cotton stalk -->
    <path d="M80 32 L83 44 L80 48 L77 44 Z"/>
    <path d="M80 48 L84 60 L80 64 L76 60 Z"/>
    <path d="M80 64 L85 76 L80 80 L75 76 Z"/>
    <path d="M80 80 L80 126" stroke="url(#kementanGold)" stroke-width="3" stroke-linecap="round"/>
    
    <!-- Left Wing Feathers / Leaves -->
    <path d="M76 45 C64 42 48 50 36 64 C48 64 62 60 74 54 Z"/>
    <path d="M74 56 C58 56 42 66 32 80 C46 78 60 72 73 66 Z"/>
    <path d="M73 68 C56 70 42 82 34 96 C48 92 60 84 72 78 Z"/>
    <path d="M72 80 C58 84 46 96 42 108 C54 102 64 94 72 88 Z"/>
    <path d="M72 90 C62 96 54 106 50 116 C60 110 68 102 73 96 Z"/>

    <!-- Right Wing Feathers / Leaves -->
    <path d="M84 45 C96 42 112 50 124 64 C112 64 98 60 86 54 Z"/>
    <path d="M86 56 C102 56 118 66 128 80 C114 78 100 72 87 66 Z"/>
    <path d="M87 68 C104 70 118 82 126 96 C112 92 100 84 88 78 Z"/>
    <path d="M88 80 C102 84 114 96 118 108 C106 102 96 94 88 88 Z"/>
    <path d="M88 90 C98 96 106 106 110 116 C100 110 92 102 87 96 Z"/>

    <!-- Center Star & Pedestal -->
    <polygon points="80,50 83,57 91,58 85,63 87,70 80,66 73,70 75,63 69,58 77,57"/>
    
    <!-- Base Ribbon / Pita Semboyan -->
    <path d="M46 122 Q80 134 114 122 Q118 128 114 133 Q80 142 46 133 Q42 127 46 122 Z" fill="#FFE066" stroke="#996515"/>
    <circle cx="80" cy="128" r="3" fill="#0A8F3D"/>
  </g>
</svg>
